{"title":"S.W.A.T.Firefight.2011.720p.Bluray.x264.anoXmous","uid":6925040,"size":733411954,"categoryP":"video","categoryS":"hd___movies","magnet":"?xt=urn:btih:6a2828b2ff2ed9e8a7e6d57455e3202e74e9fab0&amp;dn=S.W.A.T.Firefight.2011.720p.Bluray.x264.anoXmous&amp;tr=udp%3A%2F%2Ftracker.openbittorrent.com%3A80&amp;tr=udp%3A%2F%2Fopen.demonii.com%3A1337&amp;tr=udp%3A%2F%2Ftracker.coppersurfer.tk%3A6969&amp;tr=udp%3A%2F%2Fexodus.desync.com%3A6969","seeders":0,"leechers":2,"uploader":"anoXmous","files":-1,"time":1325445649,"description":"S.W.A.T.Firefight.2011.720p.Bluray.x264.anoXmous\n\nFormat                           : MPEG-4\nFormat profile                   : Base Media\nCodec ID                         : isom\nFile size                        : 699 MiB\nDuration                         : 1h 28mn\nOverall bit rate mode            : Variable\nOverall bit rate                 : 1 103 Kbps\n\n\nVideo\nID                               : 1\nFormat                           : AVC\nFormat/Info                      : Advanced Video Codec\nFormat profile                   : &lt;a class=&quot;__cf_email__&quot; href=&quot;/cdn-cgi/l/email-protection&quot; data-cfemail=&quot;a6eecfc1cee6ea928897&quot;&gt;[email&amp;#160;protected]&lt;/a&gt;&lt;script cf-hash='f9e31' type=&quot;text/javascript&quot;&gt;\n/* &lt;![CDATA[ */!function(){try{var t=&quot;currentScript&quot;in document?document.currentScript:function(){for(var t=document.getElementsByTagName(&quot;script&quot;),e=t.length;e--;)if(t[e].getAttribute(&quot;cf-hash&quot;))return t[e]}();if(t&amp;&amp;t.previousSibling){var e,r,n,i,c=t.previousSibling,a=c.getAttribute(&quot;data-cfemail&quot;);if(a){for(e=&quot;&quot;,r=parseInt(a.substr(0,2),16),n=2;a.length-n;n+=2)i=parseInt(a.substr(n,2),16)^r,e+=String.fromCharCode(i);e=document.createTextNode(e),c.parentNode.replaceChild(e,c)}}}catch(u){}}();/* ]]&gt; */&lt;/script&gt;\nFormat settings, CABAC           : Yes\nFormat settings, ReFrames        : 4 frames\nCodec ID                         : avc1\nCodec ID/Info                    : Advanced Video Coding\nDuration                         : 1h 28mn\nBit rate                         : 1 032 Kbps\nMaximum bit rate                 : 6 727 Kbps\nWidth                            : 1 280 pixels\nHeight                           : 720 pixels\nDisplay aspect ratio             : 16:9\nFrame rate mode                  : Constant\nFrame rate                       : 23.976 fps\nColor space                      : YUV\nChroma subsampling               : 4:2:0\nBit depth                        : 8 bits\nScan type                        : Progressive\nBits/(Pixel*Frame)               : 0.047\nStream size                      : 654 MiB (93%)\nWriting library                  : x264 core 120 r2120 0c7dab9\n\nAudio\nID                               : 2\nFormat                           : AAC\nFormat/Info                      : Advanced Audio Codec\nFormat profile                   : LC\nCodec ID                         : 40\nDuration                         : 1h 28mn\nBit rate mode                    : Variable\nBit rate                         : 69.2 Kbps\nMaximum bit rate                 : 101 Kbps\nChannel(s)                       : 2 channels\nChannel positions                : Front: L R\nSampling rate                    : 48.0 KHz\nCompression mode                 : Lossy\nStream size                      : 43.9 MiB (6%)\n\n                         SUB     :\n\n    S.W.A.T.Firefight.2011.720p.Bluray.x264.anoXmousk3_swe.srt\n\n     S.W.A.T.Firefight.2011.720p.Bluray.x264.anoXmous_eng.srt\n\n\n              &lt;a href=&quot; http://www.imdb.com/title/tt1621429/&quot; rel=&quot;nofollow&quot; target=&quot;_NEW&quot;&gt; http://www.imdb.com/title/tt1621429/&lt;/a&gt;\n\n  ++++++++ This work very fine with PSP and XBOX :) +++++++++","torrent":{"xt":"urn:btih:6a2828b2ff2ed9e8a7e6d57455e3202e74e9fab0","amp;dn":"S.W.A.T.Firefight.2011.720p.Bluray.x264.anoXmous","amp;tr":["udp%3A%2F%2Ftracker.openbittorrent.com%3A80","udp%3A%2F%2Fopen.demonii.com%3A1337","udp%3A%2F%2Ftracker.coppersurfer.tk%3A6969","udp%3A%2F%2Fexodus.desync.com%3A6969"],"infoHash":"6a2828b2ff2ed9e8a7e6d57455e3202e74e9fab0","infoHashBuffer":{"type":"Buffer","data":[106,40,40,178,255,46,217,232,167,230,213,116,85,227,32,46,116,233,250,176]},"announce":[],"urlList":[]}}